<?xml version="1.0" standalone="no"?>

<!DOCTYPE svg PUBLIC "-//W3C//DTD SVG 20010904//EN"

 "http://www.w3.org/TR/2001/REC-SVG-20010904/DTD/svg10.dtd">

<svg version="1.0" xmlns="http://www.w3.org/2000/svg"

 width="276.000000pt" height="210.000000pt" viewBox="0 0 276.000000 210.000000"

 preserveAspectRatio="xMidYMid meet">

<path fill="#ec8000" stroke="none" d="
M0 105

L0 0

L138 0

L276 0

L276 105

L276 210

L138 210

L0 210

L0 105

Z

"/>

<path fill="#eb840c" stroke="none" d="
M0 105

L0 0

L138 0

L276 0

L276 105

L276 210

L138 210

L0 210

L0 105

Z

M119 169

C125 163 130 157 130 156

L130 155

L127 156

C123 157 116 155 110 151

C105 146 97 143 94 143

C93 143 90 144 88 144

L84 145

L84 147

C84 147 86 151 89 156

C92 160 96 167 99 172

C102 178 104 180 105 180

C107 180 112 176 119 169

Z

M210 155

C219 147 226 139 226 138

L226 137

L225 137

C225 137 222 139 218 141

C212 144 211 144 202 144

C196 144 192 145 189 146

C186 146 184 147 183 147

L182 147

L182 150

C182 153 192 171 193 171

C194 171 202 164 210 155

Z

"/>

<path fill="#f48b02" stroke="none" d="
M0 105

L0 0

L138 0

L276 0

L276 105

L276 210

L138 210

L0 210

L0 105

Z

M118 169

C125 163 130 157 130 156

L130 155

L127 156

C123 157 116 155 110 151

C105 146 97 143 94 143

C93 143 90 144 88 144

L84 145

L84 147

C84 147 86 151 89 156

C92 160 96 167 98 171

C102 178 104 181 106 181

C106 181 112 176 118 169

Z

M210 155

C219 147 226 139 226 138

L226 137

L225 137

C225 137 222 139 218 141

C212 144 211 144 202 144

C196 144 192 145 189 146

C186 146 184 147 183 147

L182 147

L182 150

C182 152 187 163 192 170

L193 172

L194 172

C194 172 202 164 210 155

Z

"/>

<path fill="#ff9801" stroke="none" d="
M0 105

L0 0

L138 0

L276 0

L276 105

L276 210

L138 210

L0 210

L0 105

Z

M119 169

L131 157

L130 156

L130 155

L127 156

C123 157 116 155 110 151

C105 146 97 143 94 143

C93 143 90 144 88 144

L84 145

L84 147

C84 147 86 151 89 156

C92 160 96 167 98 171

C102 178 104 181 106 181

C106 181 112 176 119 169

Z

M211 155

L227 138

L227 137

L226 137

L218 140

C211 144 210 144 202 144

C196 144 192 145 189 146

C186 146 184 147 183 147

L182 147

L182 150

C182 152 187 163 192 170

L193 172

L194 172

C194 172 202 164 211 155

Z

"/>

<path fill="#ffb03b" stroke="none" d="
M0 105

L0 0

L138 0

L276 0

L276 105

L276 210

L138 210

L0 210

L0 105

Z

M137 151

L167 121

L168 122

C168 122 172 129 176 138

C185 157 192 172 194 172

C195 172 236 130 240 124

C242 121 242 121 240 112

C238 108 236 104 236 103

L235 103

L231 106

C222 114 213 118 205 118

C202 118 197 117 192 115

C187 114 180 113 174 112

C162 112 158 113 144 121

C131 127 125 128 113 128

C100 128 95 127 84 120

C69 111 66 110 58 109

C53 109 49 109 46 110

L42 112

L43 111

L43 110

L41 111

C38 112 24 131 24 133

L24 134

L26 134

C29 134 49 126 58 122

C62 120 65 118 66 119

C66 119 69 124 72 129

C83 146 94 164 98 171

C102 178 104 181 106 181

C106 181 120 167 137 151

Z

"/>

<path fill="#cfbe7b" stroke="none" d="
M0 105

L0 0

L138 0

L276 0

L276 105

L276 210

L138 210

L0 210

L0 105

Z

M137 151

L167 121

L168 122

C168 122 171 128 174 134

C177 140 182 151 186 159

L192 172

L194 172

C195 171 239 125 241 123

C242 120 242 119 238 108

C230 85 218 54 216 50

L215 49

L213 49

C208 50 198 57 194 61

C180 80 169 90 153 98

C135 107 124 110 110 108

C105 107 97 102 87 94

C84 92 80 89 79 88

C75 86 65 87 58 90

C54 91 53 93 47 102

C43 107 38 114 35 117

C33 120 29 125 27 128

L23 134

L24 134

C25 135 47 127 57 122

L65 118

L66 120

C68 122 89 156 98 171

C102 178 104 181 106 181

C106 181 120 167 137 151

Z

"/>

<path fill="#9acebd" stroke="none" d="
M0 105

L0 0

L138 0

L276 0

L276 105

L276 210

L138 210

L0 210

L0 105

Z

M137 151

L167 121

L168 122

C168 122 171 128 174 134

C177 140 182 151 186 159

L192 172

L194 172

C195 171 239 125 241 123

C242 120 242 119 238 108

C232 91 227 77 221 62

L216 49

L214 49

C212 49 207 52 201 55

C199 57 193 63 188 69

C176 84 167 91 152 98

C135 106 128 108 117 108

C106 107 99 104 87 94

C78 87 75 86 67 87

C57 89 54 91 47 101

C43 106 38 114 35 118

C32 121 28 127 26 129

L23 134

L24 134

C25 135 47 127 57 122

L65 118

L66 120

C67 121 69 124 71 127

C76 135 94 164 96 168

C101 177 104 181 105 181

C106 181 120 167 137 151

Z

"/>

<path fill="#6edaf4" stroke="none" d="
M0 105

L0 0

L138 0

L276 0

L276 105

L276 210

L138 210

L0 210

L0 105

Z

M137 151

L167 121

L168 122

C168 122 171 128 174 134

C177 140 182 151 186 159

L192 172

L194 172

C195 171 239 125 241 123

C242 120 242 119 238 108

C232 91 227 77 221 62

L216 49

L213 49

C209 49 199 56 191 66

C179 80 175 83 166 90

C160 94 142 103 134 106

C127 108 124 108 117 108

C106 107 101 105 91 97

C77 86 73 85 64 87

C56 89 54 91 47 101

C43 106 38 114 35 118

C32 121 28 127 26 129

L23 134

L24 134

C25 135 47 127 57 122

L65 118

L66 120

C67 121 69 124 71 127

C76 135 94 164 96 168

C101 177 104 181 105 181

C106 181 120 167 137 151

Z

"/>

<path fill="#9ee2f0" stroke="none" d="
M0 105

L0 0

L138 0

L276 0

L276 105

L276 210

L138 210

L0 210

L0 105

Z

M137 151

L167 121

L168 122

C168 122 171 128 174 134

C177 140 182 151 186 159

L192 172

L194 172

C195 171 239 125 241 123

C242 120 242 119 238 108

C232 91 227 77 220 61

C217 52 213 41 211 36

C205 23 199 10 197 9

C197 9 178 27 155 50

C132 73 113 92 112 92

C111 92 109 90 107 87

C105 85 100 79 97 75

C94 71 90 66 87 63

C85 60 83 57 82 57

C81 57 77 62 64 79

C60 83 56 89 55 90

C54 92 50 97 47 102

C43 107 38 114 35 118

C32 121 28 127 26 129

L23 134

L24 134

C25 135 47 127 57 122

L65 118

L66 120

C67 121 69 124 71 127

C76 135 94 164 96 168

C101 177 104 181 105 181

C106 181 120 167 137 151

Z

"/>

<path fill="#f8dcb3" stroke="none" d="
M0 105

L0 0

L138 0

L276 0

L276 105

L276 210

L138 210

L0 210

L0 105

Z

M137 151

L167 121

L168 122

C168 122 171 128 174 134

C177 140 182 151 186 159

L192 172

L194 172

C195 171 239 125 241 123

C242 120 242 119 238 108

C232 91 227 77 221 62

C217 54 214 44 212 40

C207 28 199 9 197 9

C197 9 177 28 155 51

C132 73 113 92 112 92

C111 92 110 91 109 90

C108 89 105 85 102 81

C99 77 93 71 90 66

C86 61 83 57 82 57

C81 57 78 60 76 64

C73 67 67 75 62 80

C58 86 51 95 47 101

C44 106 38 114 35 118

C32 121 28 127 26 129

L23 134

L24 134

C25 135 47 127 57 122

L65 118

L66 120

C67 121 69 124 71 127

C76 135 94 164 96 168

C101 177 104 181 105 181

C106 181 120 167 137 151

Z

"/>

<path fill="#c6ecf5" stroke="none" d="
M0 105

L0 0

L138 0

L276 0

L276 105

L276 210

L138 210

L0 210

L0 105

Z

M137 151

L167 121

L168 122

C168 122 171 128 174 134

C177 140 182 151 186 159

L192 172

L194 172

C195 171 239 125 241 123

C242 120 242 119 238 108

C232 91 227 77 221 62

C217 54 214 44 212 40

C207 28 199 9 197 9

C197 9 177 28 155 51

C132 73 113 92 112 92

C111 92 110 91 109 90

C108 89 105 85 102 81

C99 77 93 71 90 66

C86 61 83 57 82 57

C81 57 78 60 76 64

C73 67 67 75 62 80

C58 86 51 95 47 101

C44 106 38 114 35 118

C32 121 28 127 26 129

L23 134

L24 135

C25 135 46 127 56 122

C60 121 64 119 65 119

C65 119 68 122 70 126

C75 133 93 163 96 168

C101 177 104 181 105 181

C106 181 120 167 137 151

Z

"/>

<path fill="#d6f0f5" stroke="none" d="
M0 105

L0 0

L138 0

L276 0

L276 105

L276 210

L138 210

L0 210

L0 105

Z

M137 151

L167 121

L168 122

C168 122 171 128 174 134

C177 140 182 151 186 159

L192 172

L194 172

C195 171 239 125 241 123

C242 120 242 119 238 108

C232 91 227 77 221 62

C217 54 214 44 212 40

C207 28 199 9 197 9

C197 9 177 28 155 51

C132 73 113 92 112 92

L110 92

L110 91

C110 91 107 87 103 83

C100 79 94 71 90 66

C87 61 83 57 82 57

C81 57 78 60 76 64

C73 67 67 75 62 80

C58 86 51 95 47 101

C44 106 38 114 35 118

C32 121 28 127 26 129

L23 134

L24 135

C25 135 46 127 56 122

C60 121 64 119 65 119

C65 119 68 122 70 126

C75 133 93 163 96 168

C101 177 104 181 105 181

C106 181 120 167 137 151

Z

"/>

<path fill="#f7ecdc" stroke="none" d="
M0 105

L0 0

L138 0

L276 0

L276 105

L276 210

L138 210

L0 210

L0 105

Z

M137 151

L167 121

L168 122

C168 122 171 128 174 134

C177 140 182 151 186 159

L192 172

L194 172

C195 171 239 125 241 123

C242 120 242 119 238 108

C232 90 227 78 224 70

C222 66 218 56 215 47

C207 27 199 9 197 9

C197 9 177 28 155 51

C132 74 113 92 112 92

C110 91 97 76 90 66

C87 61 83 57 82 57

C81 57 78 60 76 64

C73 67 67 75 62 80

C58 86 51 95 47 101

C44 106 38 114 35 118

C32 121 28 127 26 129

L23 134

L24 135

C25 135 46 127 56 122

C60 121 64 119 65 119

C65 119 68 122 70 126

C75 133 93 163 96 168

C101 177 104 181 105 181

C106 181 120 167 137 151

Z

"/>

<path fill="#eaf5f5" stroke="none" d="
M0 105

L0 0

L138 0

L276 0

L276 105

L276 210

L138 210

L0 210

L0 105

Z

M137 151

L167 121

L168 122

C168 122 171 128 174 134

C177 140 182 151 186 159

L192 172

L194 172

C195 171 239 125 241 123

C242 120 242 119 238 108

C232 90 227 78 224 70

C222 66 218 56 215 47

C207 27 199 9 197 9

C197 9 177 28 155 51

C132 74 113 92 112 92

C110 91 97 76 90 66

C87 61 83 57 82 57

C81 57 78 60 76 64

C73 67 67 75 62 81

C58 86 51 95 47 101

C44 106 38 114 35 118

C32 121 28 127 26 129

L23 134

L24 135

C25 135 45 128 57 122

C61 120 64 119 65 119

C66 119 71 126 89 157

C97 169 103 180 104 180

C104 181 105 181 105 181

C106 181 120 167 137 151

Z

"/>

<path fill="#edf6f5" stroke="none" d="
M0 105

L0 0

L138 0

L276 0

L276 105

L276 210

L138 210

L0 210

L0 105

Z

M137 151

L167 121

L168 122

C168 122 171 128 174 134

C177 140 182 151 186 159

L192 172

L194 172

C195 171 239 125 241 123

C242 120 242 119 238 108

C232 90 227 78 224 70

C222 66 218 56 215 47

C207 27 199 9 197 9

C197 9 177 28 155 51

C132 73 113 92 112 92

C111 92 97 76 92 68

C85 59 83 57 82 57

C81 57 78 60 76 64

C73 67 67 75 62 81

C58 86 51 95 47 101

C44 106 38 114 35 118

C32 121 28 127 26 129

L23 134

L24 135

C25 135 45 128 57 122

C61 120 64 119 65 119

C66 119 71 126 89 157

C97 169 103 180 104 180

C104 181 105 181 105 181

C106 181 120 167 137 151

Z

"/>

<path fill="#eff6f5" stroke="none" d="
M0 105

L0 0

L138 0

L276 0

L276 105

L276 210

L138 210

L0 210

L0 105

Z

M137 151

L167 121

L168 122

C168 122 171 128 174 134

C177 140 182 151 186 159

L192 172

L194 172

C195 171 239 125 241 123

C242 120 242 119 238 108

C232 90 227 78 224 70

C222 66 218 56 215 47

C207 27 199 9 197 9

C197 9 177 28 155 51

C132 73 113 92 112 92

C111 92 97 76 92 68

C85 59 83 57 82 57

C81 57 78 60 76 64

C73 67 67 75 62 81

C58 86 51 95 47 101

C44 106 38 114 35 118

C32 121 28 127 26 129

L23 134

L24 135

C25 135 45 128 57 122

C61 120 64 119 65 119

C66 119 71 126 89 157

C97 169 103 180 104 180

C104 181 105 181 105 181

C106 181 120 167 137 151

Z

"/>

<path fill="#f2f7f5" stroke="none" d="
M0 105

L0 0

L138 0

L276 0

L276 105

L276 210

L138 210

L0 210

L0 105

Z

M137 151

L167 121

L168 122

C168 122 171 128 174 134

C177 140 182 151 186 159

L192 172

L194 172

C195 171 239 125 241 123

C242 120 242 119 238 108

C232 90 227 78 224 70

C222 66 218 56 215 47

C207 27 199 9 197 9

C197 9 177 28 155 51

C132 73 113 92 112 92

C111 92 97 76 92 68

C85 59 83 57 82 57

C81 57 78 60 76 64

C73 67 67 75 62 81

C58 86 51 95 47 101

C44 106 38 114 35 118

C32 121 28 127 26 129

L23 134

L24 135

C25 135 45 128 57 122

C61 120 64 119 65 119

C66 119 71 126 89 157

C97 169 103 180 104 180

C104 181 105 181 105 181

C106 181 120 167 137 151

Z

"/>

<path fill="#f8f6f2" stroke="none" d="
M0 105

L0 0

L138 0

L276 0

L276 105

L276 210

L138 210

L0 210

L0 105

Z

M137 151

L167 121

L168 122

C168 122 171 128 174 134

C177 140 182 151 186 159

L192 172

L194 172

C195 171 239 125 241 123

C242 120 242 119 238 108

C232 90 227 78 224 70

C222 66 218 56 215 47

C207 27 199 9 197 9

C196 9 177 28 155 51

C132 73 113 92 112 92

C111 92 97 76 92 68

C85 59 83 57 82 57

C81 57 78 60 76 64

C73 67 67 75 62 81

C58 86 51 95 47 101

C44 106 38 114 35 118

C32 121 28 127 26 129

L23 134

L24 135

C25 135 45 128 57 122

C61 120 64 119 65 119

C66 119 71 126 89 157

C97 169 103 180 104 180

C104 181 105 181 105 181

C106 181 120 167 137 151

Z

"/>

<path fill="#f6f8f5" stroke="none" d="
M0 105

L0 0

L138 0

L276 0

L276 105

L276 210

L138 210

L0 210

L0 105

Z

M136 152

C152 135 166 122 167 122

C168 122 171 129 175 137

C179 145 184 156 187 162

L193 172

L194 172

C195 171 239 125 241 123

C242 120 242 119 238 108

C232 90 227 78 224 70

C222 66 218 56 215 47

C207 27 199 9 197 9

C196 9 177 28 155 51

C132 73 113 92 112 92

C111 92 97 76 92 68

C85 59 83 57 82 57

C81 57 78 60 76 64

C73 67 67 75 62 81

C58 86 51 95 47 101

C44 106 38 114 35 118

C32 121 28 127 26 129

L23 134

L24 135

C25 135 45 128 57 122

C61 120 64 119 65 119

C66 119 71 126 89 157

C97 169 103 180 104 180

C104 181 105 181 105 181

C106 181 120 168 136 152

Z

"/>

<path fill="#f8f8f5" stroke="none" d="
M0 105

L0 0

L138 0

L276 0

L276 105

L276 210

L138 210

L0 210

L0 105

Z

M136 152

C152 135 166 122 167 122

C168 122 171 129 175 137

C179 145 184 156 187 162

L193 172

L194 172

C195 171 239 125 241 123

C242 120 242 119 238 108

C232 90 227 78 224 70

C222 66 218 56 215 48

C207 27 199 9 197 9

C196 9 178 27 155 50

C132 73 114 91 113 91

C110 91 103 83 92 69

C87 62 83 57 82 57

C81 57 78 60 76 64

C73 67 67 75 62 81

C58 86 51 95 47 101

C44 106 38 114 35 118

C32 121 28 127 26 129

L23 134

L24 135

C25 135 45 128 57 122

C61 120 64 119 65 119

C66 119 71 126 89 157

C97 169 103 180 104 180

C104 181 105 181 105 181

C106 181 120 168 136 152

Z

M213 32

L213 31

L213 31

C212 31 212 31 212 32

L211 33

L212 33

L213 33

L213 32

Z

M208 21

L207 20

L207 22

C208 23 208 25 208 25

L208 26

L209 24

C209 24 209 22 208 21

Z

M206 17

C206 16 205 16 204 15

L203 14

L204 15

C205 16 205 17 206 17

L206 17

L206 17

Z

"/>

</svg>

