<?xml version="1.0" standalone="no"?>

<!DOCTYPE svg PUBLIC "-//W3C//DTD SVG 20010904//EN"

 "http://www.w3.org/TR/2001/REC-SVG-20010904/DTD/svg10.dtd">

<svg version="1.0" xmlns="http://www.w3.org/2000/svg"

 width="308.000000pt" height="258.000000pt" viewBox="0 0 308.000000 258.000000"

 preserveAspectRatio="xMidYMid meet">

<path fill="#e48105" stroke="none" d="
M0 129

L0 0

L154 0

L308 0

L308 129

L308 258

L154 258

L0 258

L0 129

Z

"/>

<path fill="#fe9801" stroke="none" d="
M0 129

L0 0

L154 0

L308 0

L308 129

L308 258

L154 258

L0 258

L0 129

Z

M121 190

C126 185 131 180 131 179

L132 177

L126 177

C121 177 118 176 113 173

C106 168 101 167 95 167

L91 168

L90 169

C90 170 91 173 93 176

C104 193 109 199 110 199

C111 199 116 195 121 190

Z

M208 181

C217 172 220 169 220 167

L220 164

L222 164

C224 165 226 164 229 161

C231 159 233 157 233 157

C233 156 234 154 236 152

L240 149

L234 154

C230 157 224 161 219 163

C212 167 210 167 202 168

C191 168 186 170 186 174

C186 177 193 193 195 193

C195 193 201 188 208 181

Z

M143 168

L146 165

L142 167

C140 169 139 171 139 171

L139 171

L139 171

C139 171 141 170 143 168

Z

M182 165

L181 164

L182 165

L182 167

L183 167

L183 166

L182 165

Z

M81 157

C81 156 80 156 79 155

L78 154

L79 155

C80 156 80 157 81 157

L81 157

L81 157

Z

M155 155

L157 154

L155 155

C154 156 153 156 153 157

L153 157

L153 157

C154 157 154 156 155 155

Z

M28 156

C28 155 28 155 27 155

L26 154

L26 155

L26 156

L27 156

L28 156

L28 156

Z

M176 152

L175 151

L176 152

L176 154

L177 154

L177 153

L176 152

Z

M42 149

L41 149

L40 150

L39 151

L40 150

L42 150

L42 149

Z

M94 151

L94 150

L92 150

L91 149

L92 150

C92 151 93 151 93 151

L94 151

L94 151

Z

M244 145

L247 142

L243 144

C241 146 240 148 240 148

L240 148

L240 148

C240 148 242 147 244 145

Z

M85 145

C84 144 81 142 80 142

L77 140

L80 142

C82 145 85 147 87 147

L88 147

L85 145

Z

M57 143

L56 143

L55 143

L54 144

L55 144

L57 144

L57 143

Z

M37 141

L39 140

L37 141

C36 142 35 142 35 143

L35 143

L35 143

C36 143 36 142 37 141

Z

M174 140

L174 139

L173 139

L172 139

L172 140

L172 141

L172 141

C173 141 173 141 174 140

Z

M230 135

L232 134

L229 135

C228 136 226 136 226 137

L226 137

L227 137

C227 137 228 136 230 135

Z

M237 130

L239 129

L235 131

C233 132 232 133 232 134

L232 134

L234 133

C235 133 236 131 237 130

Z

M244 132

C244 132 243 131 242 129

L241 128

L242 130

L243 133

L244 133

L244 133

L244 132

Z

"/>

<path fill="#db962d" stroke="none" d="
M0 129

L0 0

L154 0

L308 0

L308 129

L308 258

L154 258

L0 258

L0 129

Z

M121 190

C126 185 131 180 131 179

L132 177

L133 177

C133 177 142 169 152 158

L171 140

L172 143

C173 147 184 170 185 171

C186 171 186 172 186 174

C186 177 193 193 195 193

C195 193 201 188 208 181

C217 172 220 169 220 167

L220 164

L222 164

C224 165 226 164 229 161

C231 159 233 157 233 157

C233 156 236 153 240 149

C247 142 247 140 244 133

L242 128

L241 128

C240 128 236 130 232 133

C220 141 216 143 207 142

C202 142 196 141 192 140

C177 135 165 136 147 144

C129 151 124 153 110 153

C97 153 97 153 88 147

C83 144 76 140 73 138

C66 135 66 135 56 135

C44 136 39 138 34 145

C32 147 29 150 28 152

L26 155

L26 156

L27 156

L35 153

C40 151 45 148 47 147

C49 146 55 144 59 142

L68 140

L70 142

C70 143 75 149 79 155

C83 161 88 167 88 168

C89 169 90 170 90 170

C90 171 91 173 93 176

C104 192 109 199 110 199

C111 199 116 195 121 190

Z

"/>

<path fill="#feaf3b" stroke="none" d="
M0 129

L0 0

L154 0

L308 0

L308 129

L308 258

L154 258

L0 258

L0 129

Z

M120 191

C126 186 139 173 150 162

C160 152 169 143 170 143

L171 143

L171 144

C171 145 174 151 178 159

C182 167 186 176 186 179

C189 187 193 194 195 194

C196 194 205 186 216 175

C241 150 247 143 247 139

C247 136 243 128 241 127

C240 127 236 129 232 132

C219 140 209 143 201 140

C199 140 197 139 195 139

C194 139 192 138 190 138

C186 135 177 135 169 136

L161 137

L161 138

L161 139

L158 139

C157 139 152 141 148 143

C143 145 137 147 135 148

C132 148 129 150 128 150

C125 151 114 153 108 152

C100 152 95 150 83 143

C78 139 71 136 69 135

C68 135 66 134 65 134

C65 133 57 133 51 135

C48 135 45 136 43 136

C41 136 34 142 30 148

C28 150 26 153 26 154

L25 156

L25 157

L26 157

L35 154

C40 151 46 149 48 148

C52 145 67 141 68 142

C69 142 71 145 73 148

C75 151 81 160 85 166

C97 182 106 197 107 199

L108 201

L109 201

C110 201 115 197 120 191

Z

M49 126

L50 123

L50 123

C49 123 48 124 48 126

L46 128

L47 128

C47 128 48 127 49 126

Z

M227 92

L227 91

L226 91

L226 92

L226 93

C227 94 227 94 228 94

L228 94

L227 92

Z

M225 88

L224 87

L225 88

L225 90

L226 90

L226 89

L225 88

Z

M205 78

L208 76

L205 77

C204 78 201 80 198 83

L193 88

L197 84

C200 82 203 79 205 78

Z

"/>

<path fill="#d3ae6f" stroke="none" d="
M0 129

L0 0

L154 0

L308 0

L308 129

L308 258

L154 258

L0 258

L0 129

Z

M120 191

C126 186 139 173 150 162

C160 152 169 143 170 143

L171 143

L171 144

C171 145 174 151 178 159

C182 167 186 176 186 179

C189 187 193 194 195 194

C196 194 205 186 216 175

C241 150 247 143 247 140

C247 135 244 128 241 127

C240 126 239 125 239 125

C239 124 238 120 236 117

C235 113 232 108 232 104

C229 96 221 78 218 74

L216 72

L210 75

C204 77 201 80 194 87

C168 115 165 117 158 121

C145 129 143 129 125 129

C109 129 108 129 103 127

C99 125 94 122 90 120

C80 113 76 112 68 113

C57 115 53 117 46 128

C43 132 38 138 36 141

C34 143 31 146 29 149

C28 151 26 154 26 155

L25 156

L25 157

L26 157

L35 154

C40 151 46 149 48 148

C52 145 67 141 68 142

C69 142 71 145 73 148

C75 151 81 160 85 166

C97 182 106 197 107 199

L108 201

L109 201

C110 201 115 197 120 191

Z

"/>

<path fill="#86c3c9" stroke="none" d="
M0 129

L0 0

L154 0

L308 0

L308 129

L308 258

L154 258

L0 258

L0 129

Z

M121 192

C127 186 139 173 149 164

C159 154 167 145 168 145

L170 144

L174 153

C182 168 184 173 187 181

C190 191 193 195 195 195

C200 195 248 144 248 140

C248 138 247 135 239 121

C237 117 234 109 232 103

C227 87 219 71 217 71

C216 71 212 73 208 74

C201 78 191 87 184 96

C179 103 166 116 159 120

C156 122 150 124 147 126

C141 128 140 129 125 129

C106 129 106 129 91 119

C85 115 79 112 77 112

C73 111 60 113 55 116

C53 117 50 120 46 126

C42 131 38 137 35 140

C33 143 30 147 28 149

C27 151 25 154 25 155

L24 156

L25 157

L26 158

L34 155

C38 153 44 151 46 150

C52 146 66 142 68 142

C68 143 71 147 74 151

C77 156 81 162 83 165

C85 167 89 172 91 176

C93 179 97 184 99 187

C101 190 103 194 105 196

C108 201 108 202 109 202

C110 202 115 197 121 192

Z

"/>

<path fill="#74cee2" stroke="none" d="
M0 129

L0 0

L154 0

L308 0

L308 129

L308 258

L154 258

L0 258

L0 129

Z

M121 192

C127 186 139 173 149 164

C159 154 167 145 168 145

L170 144

L174 153

C182 168 184 173 187 181

C190 191 193 195 195 195

C200 195 248 144 248 140

C248 138 247 136 239 120

C237 115 234 108 232 102

C229 95 220 72 219 71

C219 71 217 71 216 71

L214 70

L215 71

L215 72

L214 72

L212 71

L212 72

L212 73

L211 73

L210 72

L210 73

L210 74

L209 74

L208 73

L208 74

L208 75

L207 75

L206 74

L206 75

L206 76

L205 76

L205 75

L203 77

L202 79

L203 77

L203 76

L199 80

L196 84

L197 82

L198 80

L192 85

C189 89 186 92 186 92

L186 92

L188 91

L190 90

L186 93

L183 96

L184 95

L186 95

L183 98

C181 100 180 102 179 102

L178 102

L178 103

C178 104 165 116 159 120

C156 122 150 124 147 126

C141 128 140 129 125 129

C106 129 106 129 91 119

C85 115 79 112 77 112

C73 111 60 113 55 116

C53 117 50 120 46 126

C42 131 38 137 35 140

C33 143 30 147 28 149

C27 151 25 154 25 155

L24 156

L25 157

L26 158

L34 155

C38 153 44 151 46 150

C52 146 66 142 68 142

C68 143 71 147 74 151

C77 156 81 162 83 165

C85 167 89 172 91 176

C93 179 97 184 99 187

C101 190 103 194 105 196

C108 201 108 202 109 202

C110 202 115 197 121 192

Z

M214 60

L213 59

L213 60

L213 62

L214 62

L214 61

L214 60

Z

M212 55

L211 54

L211 55

C211 56 211 57 212 57

L212 58

L213 58

L213 57

L212 55

Z

M174 54

L176 51

L176 51

C176 51 174 52 173 54

L171 56

L171 56

C171 56 173 55 174 54

Z

M181 46

L180 46

L179 47

C178 48 177 49 177 49

L177 50

L179 48

L181 47

L181 46

Z

M206 42

L203 35

L202 35

L202 36

L205 42

L208 49

L209 49

L209 48

L206 42

Z

M191 35

L195 30

L193 32

C192 33 189 36 187 39

L183 44

L185 42

C186 40 189 37 191 35

Z

M201 31

L199 30

L200 32

L201 34

L202 34

L202 33

L201 31

Z

"/>

<path fill="#bcbbae" stroke="none" d="
M0 129

L0 0

L154 0

L308 0

L308 129

L308 258

L154 258

L0 258

L0 129

Z

M121 192

C127 186 139 173 149 164

C159 154 167 145 168 145

L170 144

L174 153

C182 168 184 173 187 181

C190 191 193 195 195 195

C200 195 248 144 248 140

C248 138 247 135 239 121

C237 117 234 109 232 103

C228 89 219 71 218 71

L216 71

L215 65

C213 58 202 32 200 30

L199 30

L199 31

C199 31 201 35 203 39

C204 43 206 47 206 48

C206 49 207 50 207 52

C208 53 209 54 209 55

C209 56 210 57 210 58

C212 59 213 63 214 70

L215 72

L213 72

C212 71 209 73 206 74

L200 78

L200 79

C200 79 199 81 197 82

L195 85

L196 82

L198 80

L197 80

C196 80 187 89 187 90

L187 91

L189 90

L190 89

L190 89

C190 89 189 91 187 92

L185 95

L186 93

L187 91

L185 93

C183 95 182 97 183 97

L183 99

L174 108

C164 117 157 121 147 126

C141 128 140 129 125 129

C106 129 106 129 91 119

C85 115 79 112 77 112

C73 111 60 113 55 116

C53 117 50 120 46 126

C42 131 38 137 35 140

C33 143 30 147 28 149

C27 151 25 154 25 155

L24 156

L25 157

L26 158

L34 155

C38 153 44 151 46 150

C52 146 66 142 68 142

C68 143 71 147 74 151

C77 156 81 162 83 165

C85 167 89 172 91 176

C93 179 97 184 99 187

C101 190 103 194 105 196

C108 201 108 202 109 202

C110 202 115 197 121 192

Z

M179 101

L179 100

L178 101

C177 101 177 102 177 102

L177 103

L178 103

C179 102 179 101 179 101

Z

M184 45

L198 30

L197 29

L196 29

L191 34

C189 36 185 40 183 43

C181 45 177 49 174 53

L168 59

L168 59

C169 59 176 53 184 45

Z

"/>

<path fill="#6edaf4" stroke="none" d="
M0 129

L0 0

L154 0

L308 0

L308 129

L308 258

L154 258

L0 258

L0 129

Z

M118 195

C123 190 137 176 148 165

L169 144

L170 144

C171 145 171 146 171 146

C171 147 174 154 178 162

C182 170 186 179 187 183

C190 190 194 196 195 196

C196 196 231 161 242 150

C250 141 250 142 245 132

C244 129 243 126 243 125

L243 124

L242 124

C242 124 240 121 239 118

C235 111 235 110 231 100

C230 95 226 87 224 83

C222 78 220 73 220 72

L219 70

L218 70

L216 70

L215 66

C215 63 214 60 215 59

L215 58

L214 59

L213 59

L213 58

C214 57 213 55 212 55

C212 54 210 51 209 49

C208 47 206 43 205 40

C203 36 202 33 203 33

L203 32

L202 31

L200 31

L201 30

L201 29

L200 29

C198 30 199 31 203 39

C204 43 206 47 206 48

C206 49 207 50 207 52

C208 53 209 55 209 56

C210 57 210 58 211 59

C211 60 212 63 213 65

L215 70

L208 73

C198 78 183 91 183 97

L182 99

L181 98

L180 98

L180 99

L181 101

L179 100

L178 100

L177 103

C176 106 165 116 159 120

C156 122 150 124 147 126

C141 128 140 129 125 129

C106 129 106 129 91 119

C78 111 76 110 65 113

C60 114 55 115 54 116

C53 117 49 122 45 127

C41 133 37 137 37 137

L36 137

L35 139

C34 141 28 150 26 153

C25 154 24 155 24 157

L24 159

L26 158

C27 158 29 157 31 156

C32 156 36 154 39 153

C42 152 45 150 46 150

C47 149 62 143 66 142

L68 142

L74 152

C78 157 84 166 87 171

C91 175 94 180 94 180

C94 181 96 185 100 190

C103 194 106 199 106 201

L107 204

L108 204

C108 204 113 200 118 195

Z

M120 109

L125 104

L125 103

L124 103

L119 108

C116 111 113 115 112 116

L111 118

L113 116

C114 115 117 112 120 109

Z

M111 108

C110 107 109 106 109 106

L108 106

L108 107

C108 108 109 109 110 110

L111 111

L112 111

L112 110

L111 108

Z

M67 100

L67 99

L66 100

C65 100 65 101 65 101

L65 102

L66 102

C67 101 67 100 67 100

Z

M129 100

L131 97

L131 97

C131 97 129 98 128 100

L126 102

L126 102

C126 102 128 101 129 100

Z

M76 88

L78 85

L75 88

C73 90 71 92 70 94

L69 97

L72 94

C73 92 75 90 76 88

Z

M96 90

L95 89

L94 89

L94 90

L94 91

C95 92 96 92 96 92

L97 92

L96 90

Z

M91 86

L90 85

L90 86

C90 86 90 87 91 87

L91 88

L92 87

L92 87

L91 86

Z

M82 81

L82 80

L82 80

C81 80 81 81 80 82

L79 84

L80 83

L82 83

L82 81

Z

M88 82

C87 81 86 80 86 80

L85 80

L85 81

C85 82 88 84 89 84

L89 84

L88 82

Z

M158 69

L158 68

L157 68

L156 68

L156 69

L156 70

L156 70

C157 70 157 70 158 69

Z

M169 58

C169 58 176 52 184 44

L198 30

L197 29

L196 29

L191 34

C189 36 183 43 178 48

L170 57

L169 56

L169 56

L166 58

C165 59 164 61 164 61

L164 63

L166 61

C166 59 168 59 169 58

Z

M200 26

L200 25

L199 25

L198 25

L198 27

L198 28

L199 28

C200 27 200 26 200 26

Z

"/>

<path fill="#a9c9cf" stroke="none" d="
M0 129

L0 0

L154 0

L308 0

L308 129

L308 258

L154 258

L0 258

L0 129

Z

M118 195

C123 190 137 176 148 165

L169 144

L170 144

C171 145 171 146 171 146

C171 147 174 154 178 162

C182 170 186 179 187 183

C190 190 194 196 195 196

C196 196 231 161 242 150

C250 141 250 142 245 132

C244 129 243 126 243 125

L243 124

L242 124

C242 124 240 121 239 118

C235 111 235 110 231 100

C230 95 226 87 224 83

C222 78 220 73 220 72

L219 70

L218 70

L216 70

L215 66

C215 63 214 60 215 59

L215 58

L214 59

L213 59

L213 58

C214 57 213 55 212 55

C212 54 210 51 209 49

C208 47 206 43 205 40

C203 36 202 33 203 33

L203 32

L202 31

L200 31

L201 30

L201 29

L200 30

L198 31

L197 30

L196 29

L191 34

C182 43 175 52 175 53

L175 54

L174 54

L173 53

L172 55

L170 57

L169 57

L168 56

L166 59

L164 61

L164 62

L165 62

L166 60

L167 58

L168 59

L169 59

L169 58

L168 57

L169 57

L170 58

L169 60

C168 61 165 64 162 68

C159 72 156 75 156 75

L156 76

L158 76

L160 75

L161 77

L162 79

L159 83

C157 85 156 87 156 87

C156 88 154 90 151 93

L146 98

L147 100

L149 101

L148 103

C148 104 147 105 147 106

L147 107

L149 107

C149 107 151 106 152 106

L154 105

L155 106

C156 109 158 108 160 106

C161 105 164 104 165 104

C167 104 169 103 170 103

L172 102

L172 104

L172 106

L175 104

L177 102

L177 103

C177 105 165 116 159 120

C156 122 150 124 147 126

C141 128 140 129 125 129

C106 129 106 129 91 119

C78 111 76 110 65 113

C60 114 55 115 54 116

C53 117 49 122 45 127

C41 133 37 137 37 137

L36 137

L35 139

C34 141 28 150 26 153

C25 154 24 155 24 157

L24 159

L26 158

C27 158 29 157 31 156

C32 156 36 154 39 153

C42 152 45 150 46 150

C47 149 62 143 66 142

L68 142

L74 152

C78 157 84 166 87 171

C91 175 94 180 94 180

C94 181 96 185 100 190

C103 194 106 199 106 201

L107 204

L108 204

C108 204 113 200 118 195

Z

M120 109

L125 104

L125 103

L124 103

L119 108

C116 111 113 115 112 116

L111 118

L113 116

C114 115 117 112 120 109

Z

M111 108

C110 107 109 106 109 106

L108 106

L108 107

C108 108 109 109 110 110

L111 111

L112 111

L112 110

L111 108

Z

M67 100

L67 99

L66 100

C65 100 65 101 65 101

L65 102

L66 102

C67 101 67 100 67 100

Z

M129 100

L131 97

L131 97

C131 97 129 98 128 100

L126 102

L126 102

C126 102 128 101 129 100

Z

M76 88

L78 85

L75 88

C73 90 71 92 70 94

L69 97

L72 94

C73 92 75 90 76 88

Z

M96 90

L95 89

L94 89

L94 90

L94 91

C95 92 96 92 96 92

L97 92

L96 90

Z

M91 86

L90 85

L90 86

C90 86 90 87 91 87

L91 88

L92 87

L92 87

L91 86

Z

M82 81

L82 80

L82 80

C81 80 81 81 80 82

L79 84

L80 83

L82 83

L82 81

Z

M88 82

C87 81 86 80 86 80

L85 80

L85 81

C85 82 88 84 89 84

L89 84

L88 82

Z

M158 69

L158 68

L157 68

L156 68

L156 69

L156 70

L156 70

C157 70 157 70 158 69

Z

M200 26

L200 25

L199 25

L198 25

L198 27

L198 28

L199 28

C200 27 200 26 200 26

Z

M179 101

C179 100 180 99 181 98

L182 97

L183 97

L183 98

L181 99

L179 101

L179 101

Z

M212 71

L212 70

L214 70

L215 69

L214 70

C214 71 213 71 213 71

L212 71

L212 71

Z

"/>

<path fill="#81ddf2" stroke="none" d="
M0 129

L0 0

L154 0

L308 0

L308 129

L308 258

L154 258

L0 258

L0 129

Z

M118 195

C123 190 137 176 148 165

L169 144

L170 144

C171 145 171 146 171 146

C171 147 174 154 178 162

C182 170 186 179 187 183

C190 190 194 196 195 196

C196 196 231 161 242 150

C250 141 250 142 245 132

C244 129 243 126 243 125

L243 124

L242 124

C242 124 240 121 239 118

C235 111 235 110 231 100

C230 95 226 87 224 83

C222 78 220 73 220 72

C219 71 218 68 217 66

C216 63 215 60 215 60

C215 59 202 32 201 30

C200 29 199 27 200 27

L200 25

L199 25

L198 25

L198 26

L198 28

L196 28

C195 29 190 34 184 40

C179 46 172 53 169 56

C166 59 162 63 161 65

C160 67 158 68 157 68

L156 68

L156 70

L156 71

L156 71

C157 71 160 68 164 64

L170 58

L169 60

C168 61 165 64 162 68

C159 72 156 75 156 75

L156 76

L158 76

L160 75

L161 77

L162 79

L159 83

C157 85 156 87 156 87

C156 88 154 90 151 93

L146 98

L147 100

L149 101

L148 103

C148 104 147 105 147 106

L147 107

L149 107

C149 107 151 106 152 106

L154 105

L155 106

C156 109 158 108 160 106

C161 105 164 104 165 104

C167 104 169 103 170 103

L172 102

L172 104

L172 106

L175 104

L178 102

L175 104

L173 107

L174 107

L174 108

L169 112

C163 118 153 123 146 126

C141 128 139 128 125 128

C106 129 106 129 91 119

C78 111 76 110 65 113

C60 114 55 115 54 116

C53 117 49 122 45 127

C41 133 37 137 37 137

L36 137

L35 139

C34 141 28 150 26 153

C25 154 24 155 24 157

L24 159

L26 158

C27 158 29 157 31 156

C32 156 36 154 39 153

C42 152 45 150 46 150

C47 149 62 143 66 142

L68 142

L74 152

C78 157 84 166 87 171

C91 175 94 180 94 180

C94 181 96 185 100 190

C103 194 106 199 106 201

L107 204

L108 204

C108 204 113 200 118 195

Z

M120 109

L125 104

L125 103

L124 103

L119 108

C116 111 113 115 112 116

L111 118

L113 116

C114 115 117 112 120 109

Z

M111 108

C110 107 109 106 109 106

L108 106

L108 107

C108 108 109 109 110 110

L111 111

L112 111

L112 110

L111 108

Z

M67 100

L67 99

L66 100

C65 100 65 101 65 101

L65 102

L66 102

C67 101 67 100 67 100

Z

M129 100

L131 97

L131 97

C131 97 129 98 128 100

L126 102

L126 102

C126 102 128 101 129 100

Z

M76 88

L78 85

L75 88

C73 90 71 92 70 94

L69 97

L72 94

C73 92 75 90 76 88

Z

M96 90

L95 89

L94 89

L94 90

L94 91

C95 92 96 92 96 92

L97 92

L96 90

Z

M91 86

L90 85

L90 86

C90 86 90 87 91 87

L91 88

L92 87

L92 87

L91 86

Z

M82 81

L82 80

L82 80

C81 80 81 81 80 82

L79 84

L80 83

L82 83

L82 81

Z

M88 82

C87 81 86 80 86 80

L85 80

L85 81

C85 82 88 84 89 84

L89 84

L88 82

Z

M212 71

L212 70

L214 70

L215 69

L214 70

C214 71 213 71 213 71

L212 71

L212 71

Z

"/>

<path fill="#d5cdbd" stroke="none" d="
M0 129

L0 0

L154 0

L308 0

L308 129

L308 258

L154 258

L0 258

L0 129

Z

M118 195

C123 190 137 176 148 165

L169 144

L170 144

C171 145 171 146 171 146

C171 147 174 154 178 162

C182 170 186 179 187 183

C190 190 194 196 195 196

C196 196 231 161 242 150

C250 141 250 142 245 132

C244 129 243 126 243 125

L243 124

L242 124

C242 124 240 121 239 118

C235 111 235 110 231 100

C230 95 226 87 224 83

C222 78 220 73 220 72

C219 71 218 68 217 66

C216 63 215 60 215 60

C215 59 202 32 201 30

C200 29 199 27 200 27

L200 25

L199 25

L198 25

L198 26

L198 28

L196 28

C195 29 190 34 184 40

C179 46 172 53 169 56

C166 59 164 62 164 63

C163 64 162 67 160 69

L156 74

L155 74

L154 73

L155 76

L155 78

L157 77

L159 76

L160 77

L161 79

L159 82

C158 84 154 88 151 91

C146 97 145 99 147 101

L148 102

L147 104

L146 106

L147 107

L148 108

L151 107

L153 106

L155 108

L157 109

L160 107

C161 106 164 105 167 105

L171 104

L171 106

L172 108

L173 108

L175 107

L169 112

C163 117 156 122 147 126

C141 128 140 129 125 129

C106 129 106 129 91 119

C78 111 76 110 65 113

C60 114 55 115 54 116

C53 117 49 122 45 127

C41 133 37 137 37 137

L36 137

L35 139

C34 141 28 150 26 153

C25 154 24 155 24 157

L24 159

L26 158

C27 158 29 157 31 156

C32 156 36 154 39 153

C42 152 45 150 46 150

C47 149 62 143 66 142

L68 142

L74 152

C78 157 84 166 87 171

C91 175 94 180 94 180

C94 181 96 185 100 190

C103 194 106 199 106 201

L107 204

L108 204

C108 204 113 200 118 195

Z

M120 109

L125 104

L125 103

L124 103

L119 108

C116 111 113 115 112 116

L111 118

L113 116

C114 115 117 112 120 109

Z

M111 108

C110 107 109 106 109 106

L108 106

L108 107

C108 108 109 109 110 110

L111 111

L112 111

L112 110

L111 108

Z

M67 100

L67 99

L66 100

C65 100 65 101 65 101

L65 102

L66 102

C67 101 67 100 67 100

Z

M129 100

L131 97

L131 97

C131 97 129 98 128 100

L126 102

L126 102

C126 102 128 101 129 100

Z

M76 88

L78 85

L75 88

C73 90 71 92 70 94

L69 97

L72 94

C73 92 75 90 76 88

Z

M96 90

L95 89

L94 89

L94 90

L94 91

C95 92 96 92 96 92

L97 92

L96 90

Z

M91 86

L90 85

L90 86

C90 86 90 87 91 87

L91 88

L92 87

L92 87

L91 86

Z

M82 81

L82 80

L82 80

C81 80 81 81 80 82

L79 84

L80 83

L82 83

L82 81

Z

M88 82

C87 81 86 80 86 80

L85 80

L85 81

C85 82 88 84 89 84

L89 84

L88 82

Z

M161 67

L163 64

L161 66

C159 67 158 68 157 68

L156 68

L156 69

L156 71

L157 70

C158 70 160 68 161 67

Z

"/>

<path fill="#9fe3f3" stroke="none" d="
M0 129

L0 0

L154 0

L308 0

L308 129

L308 258

L154 258

L0 258

L0 129

Z

M99 213

L102 209

L98 212

C96 214 94 216 94 216

L94 217

L95 217

C95 217 97 215 99 213

Z

M110 205

C110 204 114 199 120 193

C126 188 139 175 150 164

L169 145

L170 147

C171 148 174 155 177 162

C180 168 184 177 186 181

C189 190 191 194 194 196

L195 197

L199 193

C205 188 233 160 242 150

L250 141

L249 139

C249 138 245 130 242 123

C238 116 234 106 232 101

C231 96 227 88 225 82

L220 72

L221 71

L222 71

L220 69

C219 69 217 66 216 63

C216 60 211 51 207 42

C203 34 200 26 200 26

L200 24

L199 24

L198 24

L197 26

C197 27 189 35 179 45

C170 54 160 65 157 68

C153 72 148 78 144 82

L137 89

L137 90

L138 90

L146 81

C151 77 155 72 155 72

L155 71

L156 71

C156 71 159 69 161 67

L164 64

L160 69

C157 72 155 76 155 76

L155 78

L157 77

L159 76

L160 77

L161 79

L159 82

C158 84 154 88 151 91

C146 97 145 99 147 101

L148 102

L147 104

L146 106

L147 107

L148 108

L151 107

L153 106

L155 108

L157 109

L160 107

C161 106 164 105 167 105

L171 104

L171 106

C172 109 171 110 163 116

C151 125 143 127 126 128

C112 129 106 128 94 120

C78 110 76 110 64 112

C61 113 59 113 58 113

L58 112

L62 107

C64 105 66 102 67 102

C67 101 68 100 68 100

C68 99 72 94 80 85

L84 81

L93 90

L102 99

L102 98

C102 97 98 92 93 87

L84 78

L83 79

C81 80 72 91 65 100

C63 103 58 109 56 112

C53 116 48 122 45 126

C41 131 38 135 37 136

C36 137 35 138 35 139

C31 144 27 150 25 152

C24 154 23 156 23 157

L23 159

L24 159

C26 159 43 152 47 150

C48 149 53 147 58 146

L67 142

L68 144

C69 145 73 150 76 155

C80 160 83 165 84 166

C86 169 91 177 96 184

C104 198 106 201 106 203

L105 206

L108 206

L110 206

L110 205

Z

M120 109

C126 103 132 97 134 95

L137 91

L137 91

C136 91 131 95 126 101

C120 106 115 111 114 111

L113 112

L113 111

C113 110 111 108 110 106

C108 105 106 103 106 102

C106 102 106 101 105 100

L104 100

L103 100

L103 101

L105 104

C106 106 109 109 110 111

L113 114

L111 115

C111 116 109 117 109 118

L108 120

L109 120

C109 120 115 115 120 109

Z

M119 117

C118 116 117 116 117 116

L116 116

L117 118

L118 119

L119 119

L119 118

L119 117

Z

M196 19

L195 18

L194 18

L194 19

L195 21

L196 22

L197 21

C197 20 197 19 196 19

Z

"/>

<path fill="#e4e3dd" stroke="none" d="
M0 129

L0 0

L154 0

L308 0

L308 129

L308 258

L154 258

L0 258

L0 129

Z

M99 213

L102 209

L98 212

C96 214 94 216 94 216

L94 217

L95 217

C95 217 97 215 99 213

Z

M110 205

C110 204 114 199 120 193

C126 188 139 175 150 164

L169 145

L170 147

C171 148 174 155 177 162

C180 168 184 177 186 181

C189 190 191 194 194 196

L195 197

L199 193

C205 188 233 160 242 150

L250 141

L249 139

C249 138 245 130 242 123

C238 116 234 106 232 101

C231 96 227 88 225 82

L220 72

L221 71

L222 71

L220 69

C219 69 217 66 216 63

C216 60 211 51 207 42

C203 34 200 26 200 26

L200 24

L199 24

L198 24

L197 26

C197 27 172 53 159 66

L155 70

L156 71

L157 71

L156 72

L156 73

L155 72

L154 71

L152 73

C152 74 148 78 144 82

L137 89

L137 90

L138 90

L146 82

L154 74

L154 76

L154 78

L157 78

L159 77

L160 78

L160 79

L158 82

C156 84 155 86 155 86

C155 86 153 89 151 91

C146 96 144 98 146 100

C147 101 147 103 146 105

L146 108

L147 109

C148 109 150 109 151 108

C152 107 153 107 155 108

C157 109 158 109 160 108

C165 105 169 105 171 106

L172 108

L171 110

C169 112 157 120 151 123

C144 126 138 128 126 128

C112 129 106 128 94 120

C78 110 76 110 64 112

C61 113 59 113 58 113

L58 112

L62 107

C64 105 66 102 67 102

C67 101 68 100 68 100

C68 99 72 94 80 85

L84 81

L93 90

L102 99

L102 98

C102 97 98 92 93 87

L84 78

L83 79

C81 80 72 91 65 100

C63 103 58 109 56 112

C53 116 48 122 45 126

C41 131 38 135 37 136

C36 137 35 138 35 139

C31 144 27 150 25 152

C24 154 23 156 23 157

L23 159

L24 159

C26 159 43 152 47 150

C48 149 53 147 58 146

L67 142

L68 144

C69 145 73 150 76 155

C80 160 83 165 84 166

C86 169 91 177 96 184

C104 198 106 201 106 203

L105 206

L108 206

L110 206

L110 205

Z

M120 109

C126 103 132 97 134 95

L137 91

L137 91

C136 91 131 95 126 101

C120 106 115 111 114 111

L113 112

L113 111

C113 110 111 108 110 106

C108 105 106 103 106 102

C106 102 106 101 105 100

L104 100

L103 100

L103 101

L105 104

C106 106 109 109 110 111

L113 114

L111 115

C111 116 109 117 109 118

L108 120

L109 120

C109 120 115 115 120 109

Z

M119 117

C118 116 117 116 117 116

L116 116

L117 118

L118 119

L119 119

L119 118

L119 117

Z

M196 19

L195 18

L194 18

L194 19

L195 21

L196 22

L197 21

C197 20 197 19 196 19

Z

"/>

<path fill="#c8edf4" stroke="none" d="
M0 129

L0 0

L154 0

L308 0

L308 129

L308 258

L154 258

L0 258

L0 129

Z

M122 222

C122 220 119 215 115 210

L112 206

L112 205

L113 204

L112 204

L111 203

L120 194

C126 189 139 176 149 165

C160 155 169 146 169 146

L170 146

L170 147

C170 148 172 153 175 159

C178 165 182 174 185 180

C189 189 190 192 197 201

L199 204

L200 203

L200 202

L199 199

L197 196

L201 193

C205 189 229 165 241 152

L249 144

L250 145

L252 147

L253 147

L253 146

L252 144

C251 141 252 139 255 136

L256 135

L256 134

L255 134

L253 136

L250 138

L250 138

C249 138 248 135 247 132

L244 126

L245 125

C246 124 246 123 246 122

L246 121

L244 121

L242 122

L241 120

C240 119 238 113 236 108

C233 102 229 92 227 86

C224 80 222 74 221 73

L221 72

L224 71

L228 70

L228 69

L228 68

L224 68

L220 69

L218 64

C217 61 212 51 208 43

C204 34 201 26 201 25

L202 24

L201 24

C201 24 199 22 198 19

C196 17 195 15 194 15

L193 15

L193 18

C193 19 194 21 195 22

C195 23 196 24 196 25

C196 26 186 37 174 50

C161 62 145 80 136 89

C128 97 120 106 118 107

L115 110

L112 108

C111 107 107 101 102 97

C98 92 93 85 90 83

L85 78

L87 75

L89 72

L86 74

C85 75 83 76 82 76

C82 76 80 74 79 72

C78 71 77 69 76 69

L75 69

L75 70

C75 70 76 72 78 74

C80 75 81 77 81 77

C81 78 76 84 70 92

C64 99 58 108 56 111

C54 114 51 117 49 118

L46 119

L46 121

C47 123 37 135 33 137

C32 138 30 140 30 140

L30 141

L31 141

L33 140

L30 144

C23 156 19 160 16 161

L13 161

L13 162

L13 163

L15 163

C16 163 17 162 18 161

C20 161 21 160 22 160

C25 160 39 155 46 151

C48 150 51 149 53 149

C54 148 58 147 61 145

C64 144 67 143 67 144

C68 144 89 175 95 184

C96 187 98 190 99 191

C99 192 101 194 102 197

C104 199 105 202 105 202

C105 203 102 207 99 210

L93 216

L94 217

L95 218

L101 212

L107 206

L110 209

C111 210 114 214 117 217

C119 220 121 223 121 223

L122 223

L122 222

Z

M202 208

L202 206

L201 206

L200 206

L201 208

L202 210

L203 210

C203 209 203 209 202 208

Z

M111 127

C106 126 103 125 93 118

C78 110 75 109 63 112

L60 112

L62 109

C65 104 83 82 84 82

C85 82 96 95 96 95

C96 96 98 98 100 100

C102 102 105 106 108 109

L112 114

L110 116

C109 116 108 118 108 119

L108 121

L109 121

C109 121 111 120 112 119

C114 116 115 116 119 120

C121 122 123 124 124 124

L125 124

L124 122

C123 121 123 120 122 120

C122 120 120 118 119 117

L117 114

L135 95

C144 85 153 76 153 75

L154 74

L154 76

L154 78

L157 78

L159 77

L160 78

L160 79

L158 82

C156 84 155 86 155 86

C155 86 153 89 151 91

C146 96 144 98 146 100

C147 101 147 103 146 105

L146 108

L147 109

C148 109 150 109 151 108

C152 107 153 107 155 108

C157 109 158 109 160 108

C165 105 169 105 170 106

L172 107

L169 110

C161 118 152 123 142 126

C136 127 115 128 111 127

Z

"/>

<path fill="#f8f8f5" stroke="none" d="
M0 129

L0 0

L154 0

L308 0

L308 129

L308 258

L154 258

L0 258

L0 129

Z

M122 222

C122 220 119 215 115 210

L112 206

L112 205

L113 204

L112 204

L111 203

L120 194

C126 189 139 176 149 165

C160 155 169 146 169 146

L170 146

L170 147

C170 148 172 153 175 159

C178 165 182 174 185 180

C189 189 190 192 197 201

L199 204

L200 203

L200 202

L199 199

L197 196

L201 193

C205 189 229 165 241 152

L249 144

L250 145

L252 147

L253 147

L253 146

L252 144

C251 141 252 139 255 136

L256 135

L256 134

L255 134

L253 136

L250 138

L250 138

C249 138 248 135 247 132

L244 126

L245 125

C246 124 246 123 246 122

L246 121

L244 121

L242 122

L241 120

C240 119 238 113 236 108

C233 102 229 92 227 86

C224 80 222 74 221 73

L221 72

L224 71

L228 70

L228 69

L228 68

L224 68

L220 69

L218 64

C217 61 212 51 208 43

C204 34 201 26 201 25

L202 24

L201 24

C201 24 199 22 198 19

C196 17 195 15 194 15

L193 15

L193 18

C193 19 194 21 195 22

C195 23 196 24 196 25

C196 26 186 37 174 50

C161 62 145 80 136 89

C128 97 120 106 118 107

L115 110

L112 108

C111 107 107 101 102 97

C98 92 93 85 90 83

L85 78

L87 75

L89 72

L86 74

C85 75 83 76 82 76

C82 76 80 74 79 72

C78 71 77 69 76 69

L75 69

L75 70

C75 70 76 72 78 74

C80 75 81 77 81 77

C81 78 76 84 70 92

C64 99 58 108 56 111

C54 114 51 117 49 118

L46 119

L46 121

C47 123 37 135 33 137

C32 138 30 140 30 140

L30 141

L31 141

L33 140

L30 144

C23 156 19 160 16 161

L13 161

L13 162

L13 163

L15 163

C16 163 17 162 18 161

C20 161 21 160 22 160

C25 160 39 155 46 151

C48 150 51 149 53 149

C54 148 58 147 61 145

C64 144 67 143 67 144

C68 144 89 175 95 184

C96 187 98 190 99 191

C99 192 101 194 102 197

C104 199 105 202 105 202

C105 203 102 207 99 210

L93 216

L94 217

L95 218

L101 212

L107 206

L110 209

C111 210 114 214 117 217

C119 220 121 223 121 223

L122 223

L122 222

Z

M202 208

L202 206

L201 206

L200 206

L201 208

L202 210

L203 210

C203 209 203 209 202 208

Z

M111 127

C106 126 103 125 93 118

C78 110 75 109 63 112

L60 112

L62 109

C65 104 83 82 84 82

C85 82 96 95 96 95

C96 96 98 98 100 100

C102 102 105 106 108 109

L112 114

L110 116

C109 116 108 118 108 119

L108 121

L109 121

C109 121 111 120 112 119

C114 116 115 116 119 120

C121 122 123 124 124 124

L125 124

L124 122

C123 121 123 120 122 120

C122 120 120 118 119 117

L117 114

L135 95

L152 77

L153 78

L153 79

L156 79

L159 79

L157 82

C156 84 152 88 149 91

C145 96 144 98 144 99

C145 101 145 103 145 105

C145 109 147 111 151 109

C152 108 154 108 155 109

C157 110 158 110 160 109

C162 108 165 107 166 107

L169 107

L170 108

C170 110 158 119 151 122

C149 123 144 125 142 126

C136 127 115 128 111 127

Z

"/>

</svg>

